<svg xmlns="http://www.w3.org/2000/svg" viewBox="0 0 256 256" role="img" aria-label="A Turma do Master">
  <defs>
    <linearGradient id="bg" x1="28" y1="24" x2="222" y2="230" gradientUnits="userSpaceOnUse">
      <stop stop-color="#ffe35c"/>
      <stop offset="0.55" stop-color="#fffbf0"/>
      <stop offset="1" stop-color="#7bdcff"/>
    </linearGradient>
  </defs>
  <rect x="18" y="18" width="220" height="220" rx="54" fill="url(#bg)" stroke="#171717" stroke-width="10"/>
  <path d="M53 47c22-18 58-20 79-4 22-15 57-11 74 10 22 27 14 70-14 86l12 44-47-25c-20 5-42 3-58-7-24 9-55 4-72-17-23-28-13-70 26-87Z" fill="#fff" stroke="#171717" stroke-width="8" stroke-linejoin="round"/>
  <path d="M42 185c34 19 84 29 135 8" fill="none" stroke="#171717" stroke-width="8" stroke-linecap="round"/>
  <circle cx="60" cy="62" r="13" fill="#e33b2f" stroke="#171717" stroke-width="5"/>
  <circle cx="205" cy="68" r="15" fill="#1c9f4a" stroke="#171717" stroke-width="5"/>
  <path d="M201 178l13 6 13-6-5 14 10 11-15 1-8 13-6-14-15-3 12-9Z" fill="#ffe35c" stroke="#171717" stroke-width="5" stroke-linejoin="round"/>
  <text x="128" y="106" text-anchor="middle" font-family="Baloo 2, Nunito, Arial Black, sans-serif" font-size="48" font-weight="900" fill="#e33b2f" stroke="#171717" stroke-width="4" paint-order="stroke">TURMA</text>
  <text x="128" y="151" text-anchor="middle" font-family="Baloo 2, Nunito, Arial Black, sans-serif" font-size="47" font-weight="900" fill="#1479c9" stroke="#171717" stroke-width="4" paint-order="stroke">MASTER</text>
</svg>
